{
  "accessors": [
    {
      "name": "PUSHILIN_Plane_Circle.000-Mesh_positions",
      "componentType": 5126,
      "count": 3239,
      "min": [
        -1.2133740186691284,
        -0.6046370267868042,
        -1.8883689641952515
      ],
      "max": [
        1.2133740186691284,
        0.6046370267868042,
        1.8883689641952515
      ],
      "type": "VEC3",
      "bufferView": 0,
      "byteOffset": 0
    },
    {
      "name": "PUSHILIN_Plane_Circle.000-Mesh_normals",
      "componentType": 5126,
      "count": 3239,
      "min": [
        -0.9993000030517578,
        -0.9979000091552734,
        -1
      ],
      "max": [
        0.9980000257492065,
        0.9821000099182129,
        1
      ],
      "type": "VEC3",
      "bufferView": 0,
      "byteOffset": 38868
    },
    {
      "name": "PUSHILIN_Plane_Circle.000-Mesh_texcoords",
      "componentType": 5126,
      "count": 3239,
      "min": [
        0.006599999964237213,
        0.006599999964237213
      ],
      "max": [
        0.993399977684021,
        0.993399977684021
      ],
      "type": "VEC2",
      "bufferView": 1,
      "byteOffset": 0
    },
    {
      "name": "PUSHILIN_Plane_Circle.000-Mesh_0_indices",
      "componentType": 5123,
      "count": 5310,
      "min": [
        0
      ],
      "max": [
        3238
      ],
      "type": "SCALAR",
      "bufferView": 2,
      "byteOffset": 0
    }
  ],
  "asset": {
    "generator": "obj2gltf",
    "version": "2.0"
  },
  "buffers": [
    {
      "name": "PUSHILIN_Plane",
      "byteLength": 375464,
      "uri": "data:application/octet-stream;base64,"
    }
  ],
  "bufferViews": [
    {
      "name": "bufferView_0",
      "buffer": 0,
      "byteLength": 77736,
      "byteOffset": 0,
      "byteStride": 12,
      "target": 34962
    },
    {
      "name": "bufferView_1",
      "buffer": 0,
      "byteLength": 25912,
      "byteOffset": 77736,
      "byteStride": 8,
      "target": 34962
    },
    {
      "name": "bufferView_2",
      "buffer": 0,
      "byteLength": 10620,
      "byteOffset": 103648,
      "target": 34963
    },
    {
      "buffer": 0,
      "byteOffset": 114268,
      "byteLength": 261194
    }
  ],
  "images": [
    {
      "name": "PUSHILIN_PLANE",
      "mimeType": "image/png",
      "bufferView": 3
    }
  ],
  "materials": [
    {
      "name": "plane",
      "pbrMetallicRoughness": {
        "baseColorTexture": {
          "index": 0
        },
        "baseColorFactor": [
          1,
          1,
          1,
          1
        ],
        "metallicFactor": 0,
        "roughnessFactor": 0.903921569
      },
      "emissiveFactor": [
        0,
        0,
        0
      ],
      "alphaMode": "OPAQUE",
      "doubleSided": false
    }
  ],
  "meshes": [
    {
      "name": "PUSHILIN_Plane_Circle.000-Mesh",
      "primitives": [
        {
          "attributes": {
            "POSITION": 0,
            "NORMAL": 1,
            "TEXCOORD_0": 2
          },
          "indices": 3,
          "material": 0,
          "mode": 4
        }
      ]
    }
  ],
  "nodes": [
    {
      "name": "PUSHILIN_Plane_Circle.000",
      "mesh": 0
    }
  ],
  "samplers": [
    {
      "magFilter": 9729,
      "minFilter": 9986,
      "wrapS": 10497,
      "wrapT": 10497
    }
  ],
  "scene": 0,
  "scenes": [
    {
      "nodes": [
        0
      ]
    }
  ],
  "textures": [
    {
      "name": "PUSHILIN_PLANE",
      "sampler": 0,
      "source": 0
    }
  ]
}
