{
  "accessors": [
    {
      "name": "Cube.031_Cube.032-Mesh_positions",
      "componentType": 5126,
      "count": 3290,
      "min": [
        -3.529534101486206,
        -0.01700199954211712,
        -3.529534101486206
      ],
      "max": [
        3.529534101486206,
        9.921064376831055,
        3.529534101486206
      ],
      "type": "VEC3",
      "bufferView": 0,
      "byteOffset": 0
    },
    {
      "name": "Cube.031_Cube.032-Mesh_normals",
      "componentType": 5126,
      "count": 3290,
      "min": [
        -0.9866999983787537,
        -1,
        -0.9977999925613403
      ],
      "max": [
        0.9986000061035156,
        1,
        0.9998999834060669
      ],
      "type": "VEC3",
      "bufferView": 0,
      "byteOffset": 39480
    },
    {
      "name": "Cube.031_Cube.032-Mesh_0_indices",
      "componentType": 5123,
      "count": 2832,
      "min": [
        0
      ],
      "max": [
        1951
      ],
      "type": "SCALAR",
      "bufferView": 1,
      "byteOffset": 0
    },
    {
      "name": "Cube.031_Cube.032-Mesh_1_indices",
      "componentType": 5123,
      "count": 576,
      "min": [
        1952
      ],
      "max": [
        2280
      ],
      "type": "SCALAR",
      "bufferView": 1,
      "byteOffset": 5664
    },
    {
      "name": "Cube.031_Cube.032-Mesh_2_indices",
      "componentType": 5123,
      "count": 432,
      "min": [
        2281
      ],
      "max": [
        2569
      ],
      "type": "SCALAR",
      "bufferView": 1,
      "byteOffset": 6816
    },
    {
      "name": "Cube.031_Cube.032-Mesh_3_indices",
      "componentType": 5123,
      "count": 786,
      "min": [
        2570
      ],
      "max": [
        3025
      ],
      "type": "SCALAR",
      "bufferView": 1,
      "byteOffset": 7680
    },
    {
      "name": "Cube.031_Cube.032-Mesh_4_indices",
      "componentType": 5123,
      "count": 72,
      "min": [
        3026
      ],
      "max": [
        3079
      ],
      "type": "SCALAR",
      "bufferView": 1,
      "byteOffset": 9252
    },
    {
      "name": "Cube.031_Cube.032-Mesh_5_indices",
      "componentType": 5123,
      "count": 384,
      "min": [
        3080
      ],
      "max": [
        3289
      ],
      "type": "SCALAR",
      "bufferView": 1,
      "byteOffset": 9396
    }
  ],
  "asset": {
    "generator": "obj2gltf",
    "version": "2.0"
  },
  "buffers": [
    {
      "name": "Hot_Air_Balloon_01",
      "byteLength": 89124,
      "uri": "data:application/octet-stream;base64,"
    }
  ],
  "bufferViews": [
    {
      "name": "bufferView_0",
      "buffer": 0,
      "byteLength": 78960,
      "byteOffset": 0,
      "byteStride": 12,
      "target": 34962
    },
    {
      "name": "bufferView_1",
      "buffer": 0,
      "byteLength": 10164,
      "byteOffset": 78960,
      "target": 34963
    }
  ],
  "materials": [
    {
      "name": "FFCC88",
      "pbrMetallicRoughness": {
        "baseColorFactor": [
          1,
          0.8,
          0.533333,
          1
        ],
        "metallicFactor": 0,
        "roughnessFactor": 0.903921569
      },
      "emissiveFactor": [
        0,
        0,
        0
      ],
      "alphaMode": "OPAQUE",
      "doubleSided": false
    },
    {
      "name": "F44336",
      "pbrMetallicRoughness": {
        "baseColorFactor": [
          0.956863,
          0.262745,
          0.211765,
          1
        ],
        "metallicFactor": 0,
        "roughnessFactor": 0.903921569
      },
      "emissiveFactor": [
        0,
        0,
        0
      ],
      "alphaMode": "OPAQUE",
      "doubleSided": false
    },
    {
      "name": "039BE5",
      "pbrMetallicRoughness": {
        "baseColorFactor": [
          0.011765,
          0.607843,
          0.898039,
          1
        ],
        "metallicFactor": 0,
        "roughnessFactor": 0.903921569
      },
      "emissiveFactor": [
        0,
        0,
        0
      ],
      "alphaMode": "OPAQUE",
      "doubleSided": false
    },
    {
      "name": "455A64",
      "pbrMetallicRoughness": {
        "baseColorFactor": [
          0.270588,
          0.352941,
          0.392157,
          1
        ],
        "metallicFactor": 0,
        "roughnessFactor": 0.903921569
      },
      "emissiveFactor": [
        0,
        0,
        0
      ],
      "alphaMode": "OPAQUE",
      "doubleSided": false
    },
    {
      "name": "FF5722",
      "pbrMetallicRoughness": {
        "baseColorFactor": [
          1,
          0.341176,
          0.133333,
          1
        ],
        "metallicFactor": 0,
        "roughnessFactor": 0.903921569
      },
      "emissiveFactor": [
        0,
        0,
        0
      ],
      "alphaMode": "OPAQUE",
      "doubleSided": false
    },
    {
      "name": "795548",
      "pbrMetallicRoughness": {
        "baseColorFactor": [
          0.47451,
          0.333333,
          0.282353,
          1
        ],
        "metallicFactor": 0,
        "roughnessFactor": 0.903921569
      },
      "emissiveFactor": [
        0,
        0,
        0
      ],
      "alphaMode": "OPAQUE",
      "doubleSided": false
    }
  ],
  "meshes": [
    {
      "name": "Cube.031_Cube.032-Mesh",
      "primitives": [
        {
          "attributes": {
            "POSITION": 0,
            "NORMAL": 1
          },
          "indices": 2,
          "material": 0,
          "mode": 4
        },
        {
          "attributes": {
            "POSITION": 0,
            "NORMAL": 1
          },
          "indices": 3,
          "material": 1,
          "mode": 4
        },
        {
          "attributes": {
            "POSITION": 0,
            "NORMAL": 1
          },
          "indices": 4,
          "material": 2,
          "mode": 4
        },
        {
          "attributes": {
            "POSITION": 0,
            "NORMAL": 1
          },
          "indices": 5,
          "material": 3,
          "mode": 4
        },
        {
          "attributes": {
            "POSITION": 0,
            "NORMAL": 1
          },
          "indices": 6,
          "material": 4,
          "mode": 4
        },
        {
          "attributes": {
            "POSITION": 0,
            "NORMAL": 1
          },
          "indices": 7,
          "material": 5,
          "mode": 4
        }
      ]
    }
  ],
  "nodes": [
    {
      "name": "Cube.031_Cube.032",
      "mesh": 0
    }
  ],
  "scene": 0,
  "scenes": [
    {
      "nodes": [
        0
      ]
    }
  ]
}
