{
  "accessors": [
    {
      "name": "Cube.002_Cube-Mesh_positions",
      "componentType": 5126,
      "count": 146,
      "min": [
        -0.13947199285030365,
        -0.01845500059425831,
        -0.13379499316215515
      ],
      "max": [
        0.13947199285030365,
        0.01845400035381317,
        0.13379499316215515
      ],
      "type": "VEC3",
      "bufferView": 0,
      "byteOffset": 0
    },
    {
      "name": "Cube.002_Cube-Mesh_normals",
      "componentType": 5126,
      "count": 146,
      "min": [
        -0.9221000075340271,
        -1,
        -0.9402999877929688
      ],
      "max": [
        0.9221000075340271,
        1,
        0.9402999877929688
      ],
      "type": "VEC3",
      "bufferView": 0,
      "byteOffset": 1752
    },
    {
      "name": "Cube.002_Cube-Mesh_texcoords",
      "componentType": 5126,
      "count": 146,
      "min": [
        0,
        0
      ],
      "max": [
        1,
        1
      ],
      "type": "VEC2",
      "bufferView": 1,
      "byteOffset": 0
    },
    {
      "name": "Cube.002_Cube-Mesh_0_indices",
      "componentType": 5123,
      "count": 288,
      "min": [
        0
      ],
      "max": [
        145
      ],
      "type": "SCALAR",
      "bufferView": 2,
      "byteOffset": 0
    }
  ],
  "asset": {
    "generator": "obj2gltf",
    "version": "2.0"
  },
  "buffers": [
    {
      "name": "CHAHIN_COIN",
      "byteLength": 5896,
      "uri": "data:application/octet-stream;base64,"
    }
  ],
  "bufferViews": [
    {
      "name": "bufferView_0",
      "buffer": 0,
      "byteLength": 3504,
      "byteOffset": 0,
      "byteStride": 12,
      "target": 34962
    },
    {
      "name": "bufferView_1",
      "buffer": 0,
      "byteLength": 1168,
      "byteOffset": 3504,
      "byteStride": 8,
      "target": 34962
    },
    {
      "name": "bufferView_2",
      "buffer": 0,
      "byteLength": 576,
      "byteOffset": 4672,
      "target": 34963
    },
    {
      "buffer": 0,
      "byteOffset": 5248,
      "byteLength": 645
    }
  ],
  "images": [
    {
      "name": "CHAHIN_COIN_TEXTURE",
      "mimeType": "image/jpeg",
      "bufferView": 3
    }
  ],
  "materials": [
    {
      "name": "Material.013",
      "pbrMetallicRoughness": {
        "baseColorTexture": {
          "index": 0
        },
        "baseColorFactor": [
          1,
          1,
          1,
          1
        ],
        "metallicFactor": 0,
        "roughnessFactor": 0.903921569
      },
      "emissiveFactor": [
        0,
        0,
        0
      ],
      "alphaMode": "OPAQUE",
      "doubleSided": false
    }
  ],
  "meshes": [
    {
      "name": "Cube.002_Cube-Mesh",
      "primitives": [
        {
          "attributes": {
            "POSITION": 0,
            "NORMAL": 1,
            "TEXCOORD_0": 2
          },
          "indices": 3,
          "material": 0,
          "mode": 4
        }
      ]
    }
  ],
  "nodes": [
    {
      "name": "Cube.002_Cube",
      "mesh": 0
    }
  ],
  "samplers": [
    {
      "magFilter": 9729,
      "minFilter": 9986,
      "wrapS": 10497,
      "wrapT": 10497
    }
  ],
  "scene": 0,
  "scenes": [
    {
      "nodes": [
        0
      ]
    }
  ],
  "textures": [
    {
      "name": "CHAHIN_COIN_TEXTURE",
      "sampler": 0,
      "source": 0
    }
  ]
}
