{
  "accessors": [
    {
      "name": "Parachute_mesh_1_positions",
      "componentType": 5126,
      "count": 2608,
      "min": [
        -4.557123184204102,
        0,
        -2.6089370250701904
      ],
      "max": [
        4.557123184204102,
        6.829677104949951,
        2.6089370250701904
      ],
      "type": "VEC3",
      "bufferView": 0,
      "byteOffset": 0
    },
    {
      "name": "Parachute_mesh_1_normals",
      "componentType": 5126,
      "count": 2608,
      "min": [
        -1,
        -0.9997959733009338,
        -0.9896339774131775
      ],
      "max": [
        1,
        0.9997069835662842,
        0.9874280095100403
      ],
      "type": "VEC3",
      "bufferView": 0,
      "byteOffset": 31296
    },
    {
      "name": "Parachute_mesh_1_texcoords",
      "componentType": 5126,
      "count": 2608,
      "min": [
        0.029587000608444214,
        0.022383999079465866
      ],
      "max": [
        0.962772011756897,
        0.9945930242538452
      ],
      "type": "VEC2",
      "bufferView": 1,
      "byteOffset": 0
    },
    {
      "name": "Parachute_mesh_1_0_indices",
      "componentType": 5123,
      "count": 3912,
      "min": [
        0
      ],
      "max": [
        2607
      ],
      "type": "SCALAR",
      "bufferView": 2,
      "byteOffset": 0
    }
  ],
  "asset": {
    "generator": "obj2gltf",
    "version": "2.0"
  },
  "buffers": [
    {
      "name": "Parachute",
      "byteLength": 1241776,
      "uri": "data:application/octet-stream;base64,"
    }
  ],
  "bufferViews": [
    {
      "name": "bufferView_0",
      "buffer": 0,
      "byteLength": 62592,
      "byteOffset": 0,
      "byteStride": 12,
      "target": 34962
    },
    {
      "name": "bufferView_1",
      "buffer": 0,
      "byteLength": 20864,
      "byteOffset": 62592,
      "byteStride": 8,
      "target": 34962
    },
    {
      "name": "bufferView_2",
      "buffer": 0,
      "byteLength": 7824,
      "byteOffset": 83456,
      "target": 34963
    },
    {
      "buffer": 0,
      "byteOffset": 91280,
      "byteLength": 1150496
    }
  ],
  "images": [
    {
      "name": "Parachute_ColorBase",
      "mimeType": "image/png",
      "bufferView": 3
    }
  ],
  "materials": [
    {
      "name": "blinn1SG",
      "pbrMetallicRoughness": {
        "baseColorTexture": {
          "index": 0
        },
        "baseColorFactor": [
          1,
          1,
          1,
          1
        ],
        "metallicFactor": 0,
        "roughnessFactor": 1
      },
      "emissiveFactor": [
        0,
        0,
        0
      ],
      "alphaMode": "OPAQUE",
      "doubleSided": false
    }
  ],
  "meshes": [
    {
      "name": "Parachute_mesh_1",
      "primitives": [
        {
          "attributes": {
            "POSITION": 0,
            "NORMAL": 1,
            "TEXCOORD_0": 2
          },
          "indices": 3,
          "material": 0,
          "mode": 4
        }
      ]
    }
  ],
  "nodes": [
    {
      "name": "Parachute_mesh",
      "mesh": 0
    }
  ],
  "samplers": [
    {
      "magFilter": 9729,
      "minFilter": 9986,
      "wrapS": 10497,
      "wrapT": 10497
    }
  ],
  "scene": 0,
  "scenes": [
    {
      "nodes": [
        0
      ]
    }
  ],
  "textures": [
    {
      "name": "Parachute_ColorBase",
      "sampler": 0,
      "source": 0
    }
  ]
}
