{
  "accessors": [
    {
      "name": "mesh708809143_positions",
      "componentType": 5126,
      "count": 8312,
      "min": [
        -0.2730000913143158,
        -0.1379690021276474,
        -0.3361875116825104
      ],
      "max": [
        0.26699990034103394,
        0.07703124731779099,
        0.1638128012418747
      ],
      "type": "VEC3",
      "bufferView": 0,
      "byteOffset": 0
    },
    {
      "name": "mesh708809143_normals",
      "componentType": 5126,
      "count": 8312,
      "min": [
        -1,
        -1,
        -1
      ],
      "max": [
        1,
        1,
        1
      ],
      "type": "VEC3",
      "bufferView": 0,
      "byteOffset": 99744
    },
    {
      "name": "mesh708809143_texcoords",
      "componentType": 5126,
      "count": 8312,
      "min": [
        -0.16744010150432587,
        0.8420804738998413
      ],
      "max": [
        0.16744010150432587,
        1.14447021484375
      ],
      "type": "VEC2",
      "bufferView": 1,
      "byteOffset": 0
    },
    {
      "name": "mesh708809143_0_indices",
      "componentType": 5123,
      "count": 294,
      "min": [
        0
      ],
      "max": [
        179
      ],
      "type": "SCALAR",
      "bufferView": 2,
      "byteOffset": 0
    },
    {
      "name": "mesh708809143_1_indices",
      "componentType": 5123,
      "count": 7476,
      "min": [
        180
      ],
      "max": [
        4959
      ],
      "type": "SCALAR",
      "bufferView": 2,
      "byteOffset": 588
    },
    {
      "name": "mesh708809143_2_indices",
      "componentType": 5123,
      "count": 750,
      "min": [
        4960
      ],
      "max": [
        5431
      ],
      "type": "SCALAR",
      "bufferView": 2,
      "byteOffset": 15540
    },
    {
      "name": "mesh708809143_3_indices",
      "componentType": 5123,
      "count": 4896,
      "min": [
        5432
      ],
      "max": [
        8311
      ],
      "type": "SCALAR",
      "bufferView": 2,
      "byteOffset": 17040
    }
  ],
  "asset": {
    "generator": "obj2gltf",
    "version": "2.0"
  },
  "buffers": [
    {
      "name": "model",
      "byteLength": 292816,
      "uri": "data:application/octet-stream;base64,"
    }
  ],
  "bufferViews": [
    {
      "name": "bufferView_0",
      "buffer": 0,
      "byteLength": 199488,
      "byteOffset": 0,
      "byteStride": 12,
      "target": 34962
    },
    {
      "name": "bufferView_1",
      "buffer": 0,
      "byteLength": 66496,
      "byteOffset": 199488,
      "byteStride": 8,
      "target": 34962
    },
    {
      "name": "bufferView_2",
      "buffer": 0,
      "byteLength": 26832,
      "byteOffset": 265984,
      "target": 34963
    }
  ],
  "materials": [
    {
      "name": "mat8",
      "pbrMetallicRoughness": {
        "baseColorFactor": [
          0.96,
          0.26,
          0.21,
          1
        ],
        "metallicFactor": 0,
        "roughnessFactor": 1
      },
      "emissiveFactor": [
        0,
        0,
        0
      ],
      "alphaMode": "OPAQUE",
      "doubleSided": false
    },
    {
      "name": "mat23",
      "pbrMetallicRoughness": {
        "baseColorFactor": [
          0.1,
          0.1,
          0.1,
          1
        ],
        "metallicFactor": 0,
        "roughnessFactor": 1
      },
      "emissiveFactor": [
        0,
        0,
        0
      ],
      "alphaMode": "OPAQUE",
      "doubleSided": false
    },
    {
      "name": "mat21",
      "pbrMetallicRoughness": {
        "baseColorFactor": [
          1,
          1,
          1,
          1
        ],
        "metallicFactor": 0,
        "roughnessFactor": 1
      },
      "emissiveFactor": [
        0,
        0,
        0
      ],
      "alphaMode": "OPAQUE",
      "doubleSided": false
    },
    {
      "name": "mat22",
      "pbrMetallicRoughness": {
        "baseColorFactor": [
          0.62,
          0.62,
          0.62,
          1
        ],
        "metallicFactor": 0,
        "roughnessFactor": 1
      },
      "emissiveFactor": [
        0,
        0,
        0
      ],
      "alphaMode": "OPAQUE",
      "doubleSided": false
    }
  ],
  "meshes": [
    {
      "name": "mesh708809143",
      "primitives": [
        {
          "attributes": {
            "POSITION": 0,
            "NORMAL": 1,
            "TEXCOORD_0": 2
          },
          "indices": 3,
          "material": 0,
          "mode": 4
        },
        {
          "attributes": {
            "POSITION": 0,
            "NORMAL": 1,
            "TEXCOORD_0": 2
          },
          "indices": 4,
          "material": 1,
          "mode": 4
        },
        {
          "attributes": {
            "POSITION": 0,
            "NORMAL": 1,
            "TEXCOORD_0": 2
          },
          "indices": 5,
          "material": 2,
          "mode": 4
        },
        {
          "attributes": {
            "POSITION": 0,
            "NORMAL": 1,
            "TEXCOORD_0": 2
          },
          "indices": 6,
          "material": 3,
          "mode": 4
        }
      ]
    }
  ],
  "nodes": [
    {
      "name": "group708809143",
      "mesh": 0
    }
  ],
  "scene": 0,
  "scenes": [
    {
      "nodes": [
        0
      ]
    }
  ]
}
